<?xml version="1.0" encoding="UTF-8" standalone="no"?>
<svg viewBox="0 0 319.17307 313.17737" xmlns="http://www.w3.org/2000/svg">
<defs>
<filter id="filter9518-1">
<feGaussianBlur stdDeviation=".71376"/>
</filter>
<filter id="filter10343-3">
<feGaussianBlur stdDeviation=".74286"/>
</filter>
<linearGradient gradientUnits="userSpaceOnUse" id="linearGradient6343" x2="0" y1="20.39488" y2="36.65833">
<stop offset="0" stop-color="#a40000"/>
<stop offset="1" stop-color="#ef2929"/>
</linearGradient>
<linearGradient gradientUnits="userSpaceOnUse" id="linearGradient6269" x2="0" y1="374.24752" y2="678.47704">
<stop offset="0" stop-color="#f9f8f8"/>
<stop offset=".07007" stop-color="#ececec"/>
<stop offset=".93328" stop-color="#e8e7e7"/>
<stop offset="1" stop-color="#b4b3b4"/>
</linearGradient>
<linearGradient gradientUnits="userSpaceOnUse" id="linearGradient6271" x1="279.88302" x2="284.11266" y1="619.96188" y2="739.2192">
<stop offset="0" stop-color="#dad9d9"/>
<stop offset=".27966" stop-color="#dad9d9"/>
<stop offset="1"/>
</linearGradient>
<radialGradient cx="103.59114" cy="94.28754" gradientTransform="matrix(1,0,0,.84932,0,14.20771)" gradientUnits="userSpaceOnUse" id="radialGradient6353" r="25.8094">
<stop offset="0" stop-color="#fff"/>
<stop offset="1" stop-color="#fff" stop-opacity="0"/>
</radialGradient>
</defs>
<g transform="translate(-190.41347,-375.77354)">
<path d="m5.39286,883.7193h55.71428a9.28571,9.28571 0 0,1 9.28571,9.28571v55.71428a9.28571,9.28571 0 0,1 -9.28571,9.28571h-55.71428a9.28571,9.28571 0 0,1 -9.28571-9.28571v-55.71428a9.28571,9.28571 0 0,1 9.28571-9.28571" fill="#888a85" filter="url(#filter10343-3)" opacity=".72245" stroke="#888a85" stroke-width=".44291" transform="matrix(4,0,0,4,219.99784,-3151.0864)"/>
<path d="m230.56928,377.79068h222.85714a37.14286,37.14286 0 0,1 37.14286,37.14286v222.85714a37.14286,37.14286 0 0,1 -37.14286,37.14286h-222.85714a37.14286,37.14286 0 0,1 -37.14286-37.14286v-222.85714a37.14286,37.14286 0 0,1 37.14286-37.14286" fill="url(#linearGradient6269)" stroke="url(#linearGradient6271)" stroke-width="1.77165"/>
<path d="m129.40054,94.28754c0,12.10625-11.55526,21.92031-25.8094,21.92031s-25.8094-9.81406-25.8094-21.92031 11.55526-21.92031 25.8094-21.92031 25.8094,9.81406 25.8094,21.92031z" fill="url(#radialGradient6353)" filter="url(#filter9518-1)" opacity=".76327" transform="matrix(3.42888,0,0,2.19376,-70.41717,221.88645)"/>
<path d="m129.40054,94.28754c0,12.10625-11.55526,21.92031-25.8094,21.92031s-25.8094-9.81406-25.8094-21.92031 11.55526-21.92031 25.8094-21.92031 25.8094,9.81406 25.8094,21.92031z" fill="url(#radialGradient6353)" filter="url(#filter9518-1)" opacity=".76327" transform="matrix(1.4249,0,0,1.75815,299.81179,468.41564)"/>
<path d="m80.96373,28.52661c0,4.49103-3.6407,8.13173-8.13173,8.13173s-8.13173-3.6407-8.13173-8.13173 3.6407-8.13173 8.13173-8.13173 8.13173,3.6407 8.13173,8.13173z" fill="url(#linearGradient6343)" transform="matrix(3.50703,0,0,3.50703,86.57385,426.31864)"/>
<path d="m80.96373,28.52661c0,4.49103-3.6407,8.13173-8.13173,8.13173s-8.13173-3.6407-8.13173-8.13173 3.6407-8.13173 8.13173-8.13173 8.13173,3.6407 8.13173,8.13173z" fill="url(#linearGradient6343)" transform="matrix(3.50703,0,0,3.50703,-1.42615,330.31864)"/>
<path d="m80.96373,28.52661c0,4.49103-3.6407,8.13173-8.13173,8.13173s-8.13173-3.6407-8.13173-8.13173 3.6407-8.13173 8.13173-8.13173 8.13173,3.6407 8.13173,8.13173z" fill="url(#linearGradient6343)" transform="matrix(3.50703,0,0,3.50703,174.57384,330.31864)"/>
<path d="m80.96373,28.52661c0,4.49103-3.6407,8.13173-8.13173,8.13173s-8.13173-3.6407-8.13173-8.13173 3.6407-8.13173 8.13173-8.13173 8.13173,3.6407 8.13173,8.13173z" fill="url(#linearGradient6343)" transform="matrix(3.50703,0,0,3.50703,-1.42615,514.31864)"/>
<path d="m80.96373,28.52661c0,4.49103-3.6407,8.13173-8.13173,8.13173s-8.13173-3.6407-8.13173-8.13173 3.6407-8.13173 8.13173-8.13173 8.13173,3.6407 8.13173,8.13173z" fill="url(#linearGradient6343)" transform="matrix(3.50703,0,0,3.50703,174.57384,514.31864)"/>
<path d="m313.60455,529.50724c-.0972.9588-.0952,1.8694-.0952,2.8536 0,15.7502 12.69068,28.536 28.44084,28.536s28.53604-12.7858 28.53604-28.536c0-.9842.002-1.8948-.0948-2.8536-1.58836,14.2462-13.77088,25.302-28.44092,25.302s-26.7574-11.0558-28.34572-25.302z" fill="#fff"/>
<path d="m401.60455,617.50724c-.0972.9588-.0952,1.8694-.0952,2.8538 0,15.75 12.69068,28.5358 28.44084,28.5358s28.53604-12.7858 28.53604-28.5358c0-.9844.002-1.895-.0948-2.8538-1.58836,14.2462-13.77088,25.302-28.44092,25.302s-26.7574-11.0558-28.34572-25.302z" fill="#fff"/>
<path d="m225.60454,617.50724c-.0972.9588-.0952,1.8694-.0952,2.8538 0,15.75 12.69068,28.5358 28.44084,28.5358s28.53604-12.7858 28.53604-28.5358c0-.9844.002-1.895-.0948-2.8538-1.58836,14.2462-13.77088,25.302-28.44092,25.302s-26.7574-11.0558-28.34572-25.302z" fill="#fff"/>
<path d="m225.60454,433.50734c-.0972.9588-.0952,1.8692-.0952,2.8536 0,15.7502 12.69068,28.536 28.44084,28.536s28.53604-12.7858 28.53604-28.536c0-.9844.002-1.8948-.0948-2.8536-1.58836,14.2462-13.77088,25.3019-28.44092,25.3019s-26.7574-11.0557-28.34572-25.3019z" fill="#fff"/>
<path d="m401.60455,433.50734c-.0972.9588-.0952,1.8692-.0952,2.8536 0,15.7502 12.69068,28.536 28.44084,28.536s28.53604-12.7858 28.53604-28.536c0-.9844.002-1.8948-.0948-2.8536-1.58836,14.2462-13.77088,25.3019-28.44092,25.3019s-26.7574-11.0557-28.34572-25.3019z" fill="#fff"/>
</g>
</svg>
