<?xml version="1.0" encoding="UTF-8" standalone="no"?>
<svg viewBox="0 0 319.17307 313.17737" xmlns="http://www.w3.org/2000/svg">
<defs>
<filter id="filter9518-9">
<feGaussianBlur stdDeviation=".71376"/>
</filter>
<filter id="filter10343-3">
<feGaussianBlur stdDeviation=".74286"/>
</filter>
<linearGradient gradientUnits="userSpaceOnUse" id="linearGradient6379" x2="0" y1="20.39488" y2="36.65833">
<stop offset="0" stop-color="#a40000"/>
<stop offset="1" stop-color="#ef2929"/>
</linearGradient>
<linearGradient gradientUnits="userSpaceOnUse" id="linearGradient6311-7" x2="0" y1="248.28122" y2="552.51074">
<stop offset="0" stop-color="#f9f8f8"/>
<stop offset=".07007" stop-color="#ececec"/>
<stop offset=".93328" stop-color="#e8e7e7"/>
<stop offset="1" stop-color="#b4b3b4"/>
</linearGradient>
<linearGradient gradientUnits="userSpaceOnUse" id="linearGradient6313-6" x1="279.88308" x2="284.11272" y1="493.99558" y2="613.2529">
<stop offset="0" stop-color="#dad9d9"/>
<stop offset=".27966" stop-color="#dad9d9"/>
<stop offset="1"/>
</linearGradient>
<radialGradient cx="103.59114" cy="94.28754" gradientTransform="matrix(1,0,0,.84932,0,14.20771)" gradientUnits="userSpaceOnUse" id="radialGradient6383" r="25.8094">
<stop offset="0" stop-color="#fff"/>
<stop offset="1" stop-color="#fff" stop-opacity="0"/>
</radialGradient>
</defs>
<g transform="translate(-190.41347,-249.80724)">
<path d="m105.39286,683.7193h55.71428a9.28571,9.28571 0 0,1 9.28571,9.28571v55.71428a9.28571,9.28571 0 0,1 -9.28571,9.28571h-55.71428a9.28571,9.28571 0 0,1 -9.28571-9.28571v-55.71428a9.28571,9.28571 0 0,1 9.28571-9.28571" fill="#888a85" filter="url(#filter10343-3)" opacity=".72245" stroke="#888a85" stroke-width=".44291" transform="matrix(4,0,0,4,-180.00216,-2477.0527)"/>
<path d="m230.5693,251.82439h222.85714a37.14286,37.14286 0 0,1 37.14286,37.14286v222.85714a37.14286,37.14286 0 0,1 -37.14286,37.14286h-222.85714a37.14286,37.14286 0 0,1 -37.14286-37.14286v-222.85714a37.14286,37.14286 0 0,1 37.14286-37.14286" fill="url(#linearGradient6311-7)" stroke="url(#linearGradient6313-6)" stroke-width="1.77165"/>
<path d="m129.40054,94.28754c0,12.10625-11.55526,21.92031-25.8094,21.92031s-25.8094-9.81406-25.8094-21.92031 11.55526-21.92031 25.8094-21.92031 25.8094,9.81406 25.8094,21.92031z" fill="url(#radialGradient6383)" filter="url(#filter9518-9)" opacity=".76327" transform="matrix(3.42888,0,0,2.19376,-70.41717,95.92014)"/>
<path d="m129.40054,94.28754c0,12.10625-11.55526,21.92031-25.8094,21.92031s-25.8094-9.81406-25.8094-21.92031 11.55526-21.92031 25.8094-21.92031 25.8094,9.81406 25.8094,21.92031z" fill="url(#radialGradient6383)" filter="url(#filter9518-9)" opacity=".76327" transform="matrix(1.4249,0,0,1.75815,299.81176,342.4493)"/>
<path d="m80.96373,28.52661c0,4.49103-3.6407,8.13173-8.13173,8.13173s-8.13173-3.6407-8.13173-8.13173 3.6407-8.13173 8.13173-8.13173 8.13173,3.6407 8.13173,8.13173z" fill="url(#linearGradient6379)" transform="matrix(3.50703,0,0,3.50703,174.57385,204.3523)"/>
<path d="m80.96373,28.52661c0,4.49103-3.6407,8.13173-8.13173,8.13173s-8.13173-3.6407-8.13173-8.13173 3.6407-8.13173 8.13173-8.13173 8.13173,3.6407 8.13173,8.13173z" fill="url(#linearGradient6379)" transform="matrix(3.50703,0,0,3.50703,-1.42616,388.3523)"/>
<path d="m225.60456,491.54106c-.0972.95872-.0952,1.8692-.0952,2.8536 0,15.75016 12.69069,28.53596 28.44085,28.53596s28.53604-12.7858 28.53604-28.53596c0-.9844.002-1.89488-.0948-2.8536-1.5884,14.24616-13.77088,25.30188-28.44092,25.30188s-26.75744-11.05572-28.34572-25.30188z" fill="#fff"/>
<path d="m401.60452,307.54106c-.0972.95872-.0952,1.8692-.0952,2.8536 0,15.75016 12.69064,28.53596 28.4408,28.53596s28.53607-12.7858 28.53607-28.53596c0-.9844 0-1.89488-.095-2.8536-1.5884,14.24616-13.77091,25.30188-28.44095,25.30188s-26.7574-11.05572-28.34572-25.30188z" fill="#fff"/>
</g>
</svg>
